<svg width="26" height="28" viewBox="0 0 26 28" fill="none" xmlns="http://www.w3.org/2000/svg">
    <mask id="mask0_1471_6435" style="mask-type:alpha" maskUnits="userSpaceOnUse" x="0" y="1" width="26" height="26">
        <rect y="1" width="26" height="26" fill="#D9D9D9"/>
    </mask>
    <g mask="url(#mask0_1471_6435)">
        <path d="M21.2333 23.75L14.4083 16.925C13.8667 17.3583 13.2438 17.7014 12.5396 17.9542C11.8354 18.2069 11.0861 18.3333 10.2917 18.3333C8.32361 18.3333 6.65799 17.6517 5.29479 16.2885C3.9316 14.9253 3.25 13.2597 3.25 11.2917C3.25 9.32361 3.9316 7.65799 5.29479 6.29479C6.65799 4.9316 8.32361 4.25 10.2917 4.25C12.2597 4.25 13.9253 4.9316 15.2885 6.29479C16.6517 7.65799 17.3333 9.32361 17.3333 11.2917C17.3333 12.0861 17.2069 12.8354 16.9542 13.5396C16.7014 14.2438 16.3583 14.8667 15.925 15.4083L22.75 22.2333L21.2333 23.75ZM10.2917 16.1667C11.6458 16.1667 12.7969 15.6927 13.7448 14.7448C14.6927 13.7969 15.1667 12.6458 15.1667 11.2917C15.1667 9.9375 14.6927 8.78646 13.7448 7.83854C12.7969 6.89062 11.6458 6.41667 10.2917 6.41667C8.9375 6.41667 7.78646 6.89062 6.83854 7.83854C5.89062 8.78646 5.41667 9.9375 5.41667 11.2917C5.41667 12.6458 5.89062 13.7969 6.83854 14.7448C7.78646 15.6927 8.9375 16.1667 10.2917 16.1667Z" fill="#777777"/>
    </g>
</svg>
